<svg class="svg-icon" style="width: 1em;height: 1em;vertical-align: middle;fill: currentColor;overflow: hidden;" viewBox="0 0 1024 1024" version="1.1" xmlns="http://www.w3.org/2000/svg"><path d="M745.6512 657.92c-9.92 0-19.2-4.8-24.8-13.12-1.28-1.76-2.88-4.16-4.16-7.36v-0.16c-35.04-83.84-124.64-140.16-222.88-140.16-19.52 0-39.04 2.24-58.08 6.56-13.12 3.04-26.72-3.2-33.12-15.04a331.488 331.488 0 0 1-39.84-157.44C362.4512 148.64 511.0912 0 693.8112 0c4 0 8 0.32 12 0.48l4.64 0.32c12.64 0.64 23.52 8.96 27.2 21.12 3.84 12-0.32 25.12-10.24 32.8-45.76 35.36-72 88.64-72 146.24 0 102.08 83.04 184.96 184.96 184.96 50.08 0 96.96-19.68 132-55.52 8.8-8.96 22.24-11.52 33.76-6.4 11.52 5.12 18.56 16.96 17.76 29.44a329.712 329.712 0 0 1-273.28 304c-1.6 0.32-3.36 0.48-4.96 0.48zM493.4912 436.96c116 0 219.04 60.64 268.8 156.32a269.6 269.6 0 0 0 187.2-172.8 244.32 244.32 0 0 1-109.12 25.6c-135.2 0-245.28-110.08-245.28-245.28 0-48.64 14.08-94.88 40-134.24-121.44 26.88-212.48 135.36-212.48 264.64 0 37.6 7.84 75.04 23.04 109.28 15.84-2.24 31.84-3.52 47.84-3.52z"  /><path d="M798.4512 1024H185.9712c-52.16 0-102.08-20.64-137.28-56.64C16.2112 934.24-1.0688 891.2 0.0512 846.24c2.4-95.36 87.36-171.68 189.28-169.76 2.72 0 5.44 0.16 8.16 0.32 6.4-42.4 23.2-83.2 49.44-118.72 41.6-56.48 103.84-96.64 175.2-112.96 23.52-5.28 47.52-8 71.52-8 120.48 0 227.04 65.6 274.4 167.84 10.4-1.28 21.12-1.92 31.52-1.92 60.48 0.32 117.28 22.72 160 63.36 42.4 40.32 65.28 93.44 64.64 149.44C1022.7712 930.56 921.4912 1024 798.4512 1024zM185.8112 736.64c-68.96 0-123.84 48.32-125.44 111.04-0.64 28.64 10.4 56.16 31.36 77.6 23.84 24.48 58.24 38.4 94.24 38.4h611.68c91.2 0 165.28-66.72 166.24-148.64 0.48-39.2-15.84-76.48-45.92-105.12-31.52-29.92-73.6-46.56-118.72-46.72-10.24 0.16-20.48 0.8-30.4 2.4-19.04 3.04-37.76-5.12-48.16-20.96-1.28-1.76-2.72-4-4.16-7.2-35.2-83.84-124.8-140.16-223.04-140.16-19.52 0-39.04 2.24-58.08 6.56-57.28 13.12-107.04 44.96-140.16 89.92-22.4 30.4-36.16 65.76-39.52 102.24a44.96 44.96 0 0 1-17.12 31.36c-10.08 8.16-23.36 11.84-36.16 10.24-4.64-0.48-9.44-0.96-14.24-0.96h-2.4z m24-58.72z m561.12-66.4c0.16 0.16 0.16 0.32 0.16 0.32s0-0.16-0.16-0.32z"  /></svg>