<svg class="svg-icon" style="width: 1em;height: 1em;vertical-align: middle;fill: currentColor;overflow: hidden;" viewBox="0 0 1024 1024" version="1.1" xmlns="http://www.w3.org/2000/svg"><path d="M798.4512 805.44H185.8112c-52.16 0-102.08-20.64-137.28-56.64-32.32-33.12-49.6-76.16-48.48-121.12 2.4-95.36 87.84-171.52 189.28-169.76 2.72 0 5.44 0.16 8.16 0.32 6.4-42.4 23.2-83.2 49.44-118.72 55.84-75.84 148-120.96 246.72-120.96 120.48 0 227.04 65.6 274.4 167.84 10.4-1.28 21.12-1.92 31.52-1.92 60.48 0.32 117.28 22.72 160 63.36 42.4 40.32 65.28 93.44 64.64 149.44-1.44 114.72-102.72 208.16-225.76 208.16zM185.8112 518.24c-69.12 0-123.84 48.32-125.44 110.88-0.64 28.64 10.4 56.16 31.36 77.6 23.84 24.48 58.24 38.4 94.24 38.4h611.68c91.2 0 165.44-66.72 166.4-148.64 0.48-39.2-15.84-76.48-45.92-105.12-31.52-29.92-73.6-46.56-118.72-46.72-10.24-0.16-20.48 0.8-30.4 2.4-22.4 3.68-43.84-7.84-52.32-28.16-35.04-83.84-124.8-140.16-223.04-140.16-79.52 0-153.6 36.16-198.08 96.48-22.4 30.4-36.16 65.76-39.52 102.24-1.12 12.32-7.2 23.52-16.96 31.36-10.08 8.16-23.2 11.84-36.16 10.24-4.64-0.64-9.44-0.96-14.24-0.96-1.28 0.16-2.08 0.16-2.88 0.16z m85.28-160.8z" fill="#1A1A1A" /></svg>