<svg class="svg-icon" style="width: 1em;height: 1em;vertical-align: middle;fill: currentColor;overflow: hidden;" viewBox="0 0 1024 1024" version="1.1" xmlns="http://www.w3.org/2000/svg"><path d="M992.96 896H31.04C13.92 896 0 882.08 0 864.96c0-17.12 13.92-31.04 31.04-31.04h961.92c17.12 0 31.04 13.92 31.04 31.04 0 17.12-13.92 31.04-31.04 31.04zM992.96 190.08H31.04C13.92 190.08 0 176.16 0 159.04S13.92 128 31.04 128h961.92C1010.08 128 1024 141.92 1024 159.04s-13.92 31.04-31.04 31.04zM992.96 543.04H31.04C13.92 543.04 0 529.12 0 512s13.92-31.04 31.04-31.04h961.92c17.12 0 31.04 13.92 31.04 31.04s-13.92 31.04-31.04 31.04z"  /></svg>