<svg class="svg-icon" style="width: 1em;height: 1em;vertical-align: middle;fill: currentColor;overflow: hidden;" viewBox="0 0 1024 1024" version="1.1" xmlns="http://www.w3.org/2000/svg"><path d="M512 1024C229.76 1024 0 794.24 0 512 0 230.56 228.96 0.8 510.4 0h0.16c12.32 0 23.36 7.52 28 18.88 4.64 11.52 1.76 24.64-7.36 33.12-63.2 59.68-97.92 140.16-97.92 226.72 0 172 139.84 311.84 311.84 311.84 86.72 0 167.2-34.72 226.72-97.92 8.48-8.96 21.6-11.84 33.12-7.36 11.52 4.8 19.04 15.84 19.04 28.32C1023.2 795.04 793.44 1024 512 1024zM439.84 66.08C224.96 100.8 60.16 287.68 60.16 512c0 249.12 202.72 451.84 451.84 451.84 224.32 0 411.2-164.8 445.92-379.52-61.92 43.36-135.2 66.72-212.8 66.72-205.12 0-372.16-166.88-372.16-372.16 0.16-77.6 23.36-151.04 66.88-212.8z"  /></svg>