<svg class="svg-icon" style="width: 1em;height: 1em;vertical-align: middle;fill: currentColor;overflow: hidden;" viewBox="0 0 1024 1024" version="1.1" xmlns="http://www.w3.org/2000/svg"><path d="M959.4112 666.4c-42.56-40.64-99.52-63.2-160-63.36-10.4 0-21.12 0.64-31.52 1.92-4.32-9.28-9.12-17.92-14.4-26.56 75.04-67.36 95.68-180.48 43.2-271.2-60.16-104.16-193.6-139.84-297.76-79.84-81.28 46.88-120.64 138.4-105.6 225.92-58.72 19.36-110.4 55.68-146.72 104.96a268.768 268.768 0 0 0-49.44 118.72c-2.72-0.16-5.44-0.32-8.16-0.32C87.2512 674.56 2.4512 750.88 0.0512 846.24c-1.12 44.96 16.16 88 48.48 121.12C83.7312 1003.36 133.8112 1024 185.8112 1024H798.4512c123.04 0 224.32-93.44 225.6-208.16 0.64-56.16-22.24-109.28-64.64-149.44zM531.0912 282.72a153.2 153.2 0 0 1 76.64-20.64c53.28 0 105.12 27.68 133.6 76.96 36.16 62.72 23.04 140.48-27.2 188.32-55.36-56.64-134.4-90.4-220.64-90.4-12.64 0-25.12 0.8-37.6 2.24-9.12-60.8 18.72-124 75.2-156.48z m266.4 680.96H185.8112c-36 0-70.24-14.08-94.24-38.4-20.96-21.44-32-48.96-31.36-77.6 1.6-62.72 56.48-111.04 125.44-111.04h2.56c4.8 0.16 9.6 0.48 14.4 0.96 12.96 1.44 26.08-2.24 36.16-10.24 9.76-7.84 15.84-19.04 16.96-31.36 3.52-36.48 17.12-71.84 39.52-102.24 28.64-38.88 69.76-67.52 116.48-83.2 21.12-7.04 43.36-11.04 66.08-12.48 5.12-0.32 10.24-0.8 15.52-0.8 63.68 0 123.52 23.68 167.52 63.2 16.8 15.04 31.04 32.32 42.56 51.52 4.8 8.16 9.28 16.64 12.96 25.44 8.48 20.16 29.92 31.84 52.32 28.16 9.92-1.6 20.16-2.24 30.4-2.4 45.12 0.16 87.2 16.8 118.72 46.72 30.08 28.64 46.4 65.92 45.92 105.12-0.8 82.08-75.04 148.8-166.24 148.64zM429.4912 170.56c5.92 10.24 16.64 16 27.68 16 5.44 0 10.88-1.44 16-4.32 15.36-8.8 20.48-28.48 11.68-43.68l-47.84-82.88a31.92 31.92 0 0 0-43.68-11.68c-15.36 8.8-20.48 28.48-11.68 43.68l47.84 82.88z" fill="#2D2D2D" /><path d="M868.6912 485.92a32 32 0 0 0 22.56 39.2l92.48 24.8c2.72 0.8 5.6 1.12 8.32 1.12a32 32 0 0 0 8.32-62.88l-92.48-24.8a31.68 31.68 0 0 0-39.2 22.56zM215.7312 344l92.48 24.8c2.72 0.8 5.6 1.12 8.32 1.12a32 32 0 0 0 8.32-62.88l-92.48-24.8a32 32 0 0 0-39.2 22.56c-4.64 17.12 5.6 34.72 22.56 39.2zM869.4912 297.12c5.44 0 10.88-1.44 16-4.32l82.88-47.84c15.36-8.8 20.48-28.48 11.68-43.68a31.776 31.776 0 0 0-43.68-11.68l-82.88 47.84c-15.36 8.8-20.48 28.48-11.68 43.68 5.76 10.24 16.48 16 27.68 16zM677.8112 155.36c2.72 0.8 5.6 1.12 8.32 1.12 14.08 0 27.04-9.44 30.88-23.68l24.8-92.48A32 32 0 0 0 719.2512 1.12a32 32 0 0 0-39.2 22.56l-24.8 92.48c-4.64 17.12 5.6 34.72 22.56 39.2z" fill="#2D2D2D" /></svg>