<svg class="svg-icon" style="width: 1em;height: 1em;vertical-align: middle;fill: currentColor;overflow: hidden;" viewBox="0 0 1024 1024" version="1.1" xmlns="http://www.w3.org/2000/svg"><path d="M1024.05264 450.72c-1.92-78.88-71.84-142.56-156.32-140.48h-1.12c-5.76-32.64-19.2-64-39.36-91.36-45.44-61.6-120.32-98.4-200.48-98.4-96.32 0-181.76 51.52-221.12 132.48-7.04-0.8-14.24-0.96-21.28-1.12-49.6 0.16-96.16 18.72-131.04 52-34.88 33.12-53.6 76.8-53.12 123.04 0.32 22.08 5.28 44 14.4 64.48-11.52 23.36-19.36 48.32-23.2 73.92-2.4-0.16-4.8-0.16-7.04-0.32C84.85264 563.2 2.29264 637.44 0.05264 730.24c-1.12 43.84 15.68 85.76 47.2 118.08 34.24 35.04 82.88 55.2 133.6 55.2h593.44c119.68 0 218.24-90.88 219.52-202.72 0.48-45.12-14.88-88.16-43.36-123.84 45.6-26.08 74.88-73.6 73.6-126.24z m-729.12-103.2c23.84-22.72 55.68-35.2 89.76-35.36 7.84 0.16 15.52 0.64 23.04 1.76 20.64 3.36 40.48-7.36 48.32-26.08 26.88-64.16 95.52-107.2 170.88-107.2 61.12 0 117.92 27.68 152 73.92a155.296 155.296 0 0 1 30.08 77.92c1.12 11.52 6.72 21.76 15.84 29.12 9.28 7.52 21.44 10.88 33.28 9.44 3.52-0.48 7.04-0.64 10.72-0.8 52.16-0.48 93.92 35.04 95.04 81.76 0.96 36.16-24.16 68.32-61.12 80.48-0.64-0.48-1.44-0.8-2.08-1.28-2.88-1.92-5.76-3.68-8.64-5.44-2.24-1.28-4.48-2.72-6.88-3.84-3.52-1.92-6.88-3.68-10.4-5.44-1.44-0.8-3.04-1.44-4.48-2.08-12.64-5.76-25.76-10.4-39.36-13.76-2.4-0.64-4.8-1.28-7.2-1.76l-10.08-1.92c-3.52-0.64-7.04-1.12-10.56-1.6l-8-0.96c-6.4-0.64-12.96-0.96-19.52-0.96h-0.96c-9.6 0-19.36 0.64-28.96 1.76-43.2-92.8-136.8-154.4-244.64-161.76-7.2-0.48-14.4-0.8-21.76-0.8-9.6 0-19.2 0.64-28.8 1.44-1.28 0.16-2.72 0.16-4 0.32-8.96 0.96-17.92 2.4-26.72 4l-4.8 0.96c-8.8 1.92-17.44 4-25.92 6.56-1.28 0.48-2.56 0.8-3.84 1.28-8.8 2.88-17.6 5.92-25.92 9.44-0.16 0.16-0.48 0.16-0.64 0.32-8.48 3.52-16.64 7.68-24.64 11.84-0.96 0.48-2.08 1.12-3.04 1.6-7.68 4.32-15.2 8.96-22.4 13.92-1.28 0.96-2.56 1.76-4 2.72-7.04 4.96-14.08 10.24-20.64 15.84-1.12 0.96-2.08 1.92-3.2 2.88-6.72 5.92-13.28 12-19.52 18.56l-0.32 0.32c-0.48-28.32 11.68-55.84 34.08-77.12z m478.56 495.84H181.01264c-34.56 0-67.68-13.44-90.56-36.96-20.16-20.64-30.72-47.04-30.08-74.56 1.44-60.16 54.24-106.56 120.48-106.56h2.4c4.64 0.16 9.28 0.48 13.76 0.96 12.8 1.44 25.76-2.24 35.84-10.24 9.76-7.84 15.68-18.88 16.8-31.04 2.56-27.68 11.52-54.72 25.6-79.2 1.92-3.2 3.68-6.4 5.6-9.28 2.24-3.36 4.48-6.72 6.88-10.08 42.88-58.24 114.4-93.12 191.2-93.12 94.72 0 181.28 54.24 215.04 135.2 8.32 20 29.76 31.52 51.68 27.84 9.6-1.6 19.52-2.4 29.28-2.24 4.96 0 9.92 0.32 14.88 0.8 2.4 0.16 4.8 0.64 7.2 0.96l7.04 0.96c3.04 0.48 6.08 1.28 9.12 1.92 1.6 0.32 3.04 0.64 4.64 1.12 3.36 0.8 6.72 1.92 9.92 2.88 1.12 0.32 2.4 0.8 3.52 1.12 3.36 1.12 6.72 2.56 10.08 3.84 0.96 0.48 2.08 0.96 3.04 1.44 3.2 1.44 6.56 3.04 9.76 4.64l3.36 1.92c3.04 1.76 5.92 3.36 8.8 5.28 1.6 1.12 3.2 2.24 4.8 3.52 2.24 1.6 4.48 3.04 6.56 4.8 4 3.04 7.84 6.4 11.52 9.92 28.96 27.52 44.64 63.52 44.16 101.12-0.64 78.72-72 143.04-159.84 143.04z" fill="#1A1A1A" /></svg>