<svg class="svg-icon" style="width: 1em;height: 1em;vertical-align: middle;fill: currentColor;overflow: hidden;" viewBox="0 0 1024 1024" version="1.1" xmlns="http://www.w3.org/2000/svg"><path d="M762.105347 124.65616a31.999425 31.999425 0 0 1-27.039515-36.319347l8.959839-60.958905a31.999425 31.999425 0 1 1 63.358862 9.279833L798.424694 97.616646a32.095423 32.095423 0 0 1-36.319347 27.039514zM617.947937 161.135505c-8.159853-1.11998-15.839715-5.439902-21.119621-12.479776L560.028978 99.216617c-10.55981-14.239744-7.679862-34.239385 6.559882-44.799195 14.079747-10.55981 34.239385-7.679862 44.799195 6.559882l36.799339 49.439112c10.55981 14.239744 7.679862 34.239385-6.559883 44.799195-7.039874 5.279905-15.519721 7.199871-23.679574 5.919894zM987.381299 353.93204l-60.958905-8.959839a31.999425 31.999425 0 1 1 9.279833-63.358861l60.958905 8.959839a31.999425 31.999425 0 1 1-9.279833 63.358861zM889.94305 200.814792a31.951426 31.951426 0 0 1-14.559739-57.278971l49.439112-36.799339c14.239744-10.55981 34.239385-7.679862 44.799195 6.559882 10.55981 14.239744 7.679862 34.239385-6.559882 44.799195l-49.439112 36.799339c-7.039874 5.279905-15.679718 7.199871-23.679574 5.919894z"  /><path d="M751.385539 198.574832c47.83914 7.039874 81.118542 51.679071 74.238666 99.518212-0.639989 3.839931-1.439974 7.679862-2.559954 11.359796 21.119621 4.639917 41.279258 12.319779 59.998922 22.719591 2.559954-7.999856 4.639917-16.15971 5.919894-24.799554 11.999784-82.718514-45.439184-159.997125-128.317695-171.99691-51.19908-7.519865-100.1582 11.67979-132.95761 46.879158 19.039658 10.55981 36.799339 23.199583 52.799051 37.759322a86.558445 86.558445 0 0 1 70.878726-21.439615z"  /><path d="M771.705174 715.045552H181.955771c-51.039083 0-99.998203-20.159638-134.397585-55.519003C15.878755 627.047133-0.920943 584.807892 0.03904 540.648685c2.23996-93.438321 85.438465-168.476973 185.276671-166.237013 1.759968 0 3.519937 0 5.279905 0.159997 6.399885-40.479273 22.719592-79.198577 47.679143-112.95797 54.239025-73.758675 143.997413-117.757884 239.995688-117.757884 116.477907 0 219.516056 62.87887 266.075219 161.277102 9.43983-1.11998 19.039658-1.439974 28.479488-1.599971 59.038939 0.319994 114.557942 22.2396 156.157194 61.918887 41.279258 39.359293 63.838853 91.358358 63.198864 146.077375-1.439974 112.157985-100.318197 203.516343-220.476038 203.516344zM181.795774 438.410522c-64.798836 0-116.31791 45.279186-117.757884 103.838134-0.639989 26.71952 9.759825 52.479057 29.279474 72.638695 22.399598 23.039586 54.719017 36.15935 88.47841 36.159351h588.949417c86.23845 0 156.317191-62.87887 157.117177-140.157482 0.479991-36.799339-14.879733-71.998706-43.359221-99.03822-29.759465-28.319491-69.598749-43.999209-112.157984-44.159207a156.637185 156.637185 0 0 0-28.799483 2.23996c-22.879589 3.839931-44.959192-8.159853-53.599037-28.95948-33.279402-79.518571-118.55787-133.117608-211.836193-133.117608-75.67864 0-146.077375 34.239385-188.316617 91.678353-21.279618 28.799483-34.239385 62.398879-37.439327 96.958258-1.11998 12.639773-7.359868 24.159566-17.439686 32.159422-10.239816 8.319851-23.839572 12.159782-37.119333 10.55981-4.47992-0.479991-8.959839-0.799986-13.439759-0.959983-0.959983 0.159997-1.759968 0.159997-2.559954 0.159997z m82.238522-157.917162zM240.034728 960.00115c-5.439902 0-10.879805-1.439974-15.999713-4.319922a31.951426 31.951426 0 0 1-11.67979-43.679216l73.918672-127.9977c8.799842-15.359724 28.319491-20.639629 43.679215-11.67979 15.359724 8.799842 20.479632 28.479488 11.67979 43.679215l-73.918672 127.9977c-5.919894 10.239816-16.639701 15.999713-27.679502 15.999713zM523.069642 1024c-5.439902 0-10.879805-1.439974-15.999713-4.319922a31.951426 31.951426 0 0 1-11.67979-43.679216l110.878008-191.99655c8.799842-15.359724 28.319491-20.639629 43.679215-11.67979 15.359724 8.799842 20.479632 28.479488 11.67979 43.679215l-110.878008 191.99655c-5.919894 10.239816-16.639701 15.999713-27.679502 15.999713z"  /></svg>