<svg class="svg-icon" style="width: 1em;height: 1em;vertical-align: middle;fill: currentColor;overflow: hidden;" viewBox="0 0 1024 1024" version="1.1" xmlns="http://www.w3.org/2000/svg"><path d="M725.119933 78.720295c-5.599998 16.799995-8.479997 34.399989-8.479997 52.319984 0 92.799971 75.519976 168.319947 168.319947 168.319947 17.919994 0 35.519989-2.879999 52.319984-8.479997a157.807951 157.807951 0 0 1-34.559989 47.839985c12.159996 7.679998 23.519993 16.639995 34.079989 26.559992 5.279998 4.959998 10.079997 10.079997 14.719996 15.519995 39.679988-40.319987 64.31998-95.35997 64.47998-156.159951a31.99999 31.99999 0 0 0-20.159994-29.759991c-12.159996-4.799999-26.079992-1.759999-35.199989 7.679998a103.503968 103.503968 0 0 1-75.839976 32.799989c-57.439982 0-104.319967-46.719985-104.319968-104.319967 0-28.959991 11.679996-55.839983 32.79999-75.839976 9.599997-8.959997 12.639996-22.879993 7.679997-35.199989A31.71199 31.71199 0 0 0 791.359913 0.00032h-0.16C691.359944 0.32032 606.399971 66.720299 578.079979 157.600271c20.959993 6.399998 40.959987 15.039995 59.519982 25.599992 12.319996-46.399986 44.639986-84.639974 87.519972-104.479968z"  /><path d="M779.679916 715.040097H189.920101c-51.039984 0-99.999969-20.159994-134.399958-55.519983C23.840153 627.040124 6.880158 584.800137 8.000157 540.640151c2.239999-93.439971 85.439973-168.479947 185.279943-166.239948 1.759999 0 3.519999 0 5.279998 0.16 6.399998-40.479987 22.719993-79.199975 47.679985-112.959965 54.239983-73.759977 143.999955-117.759963 239.999925-117.759963 116.479964 0 219.519931 62.87998 266.079917 161.27995 9.439997-1.12 19.039994-1.44 28.479991-1.6 59.039982 0.32 114.559964 22.239993 156.159951 61.919981 41.279987 39.359988 63.83998 91.359971 63.19998 146.079954-1.44 112.159965-100.319969 203.519936-220.479931 203.519937zM189.760101 438.400183c-64.79998 0-116.319964 45.279986-117.759964 103.839968-0.64 26.719992 9.759997 52.479984 29.279991 72.639977 22.399993 23.039993 54.719983 36.159989 88.479973 36.159989h588.959816c86.239973 0 156.319951-62.87998 157.119951-140.159957 0.48-36.799989-14.879995-71.999978-43.359987-99.039969-29.759991-28.319991-69.599978-43.999986-112.159965-44.159986a156.639951 156.639951 0 0 0-28.799991 2.239999c-22.879993 3.839999-44.959986-8.159997-53.599983-28.959991-33.27999-79.519975-118.559963-133.119958-211.839934-133.119958-75.679976 0-146.079954 34.239989-188.319941 91.679971-21.279993 28.799991-34.239989 62.399981-37.439988 96.95997-1.12 12.639996-7.359998 24.159992-17.439995 32.15999-10.239997 8.319997-23.839993 12.159996-37.119988 10.559997-4.479999-0.48-8.959997-0.8-13.439996-0.96-0.96 0.16-1.759999 0.16-2.559999 0.16zM272.000075 280.480232zM364.960046 927.36003l-15.999995-9.279997 15.999995-9.279997a31.95199 31.95199 0 0 0 0-55.359983c-9.599997-5.599998-21.759993-5.919998-31.99999 0l-15.999995 9.279997v-18.559994c0-17.599995-14.399996-31.99999-31.99999-31.99999-17.759994 0-31.99999 14.239996-31.99999 31.99999v18.559994l-15.999995-9.279997a32.04799 32.04799 0 0 0-47.999985 27.679992c0 11.039997 5.759998 21.759993 15.999995 27.679991l15.999995 9.279997-15.999995 9.279997c-15.359995 8.799997-20.479994 28.479991-11.679996 43.679987 8.799997 15.359995 28.319991 20.479994 43.679986 11.679996l15.999995-9.279997v18.399994c0 17.599995 14.399996 31.99999 31.99999 31.99999 5.759998 0 11.199997-1.6 15.999995-4.319999 9.599997-5.599998 15.999995-15.839995 15.999995-27.679991v-18.399994l15.999995 9.279997c15.359995 8.799997 34.879989 3.519999 43.679986-11.679996 8.959997-15.359995 3.679999-34.879989-11.679996-43.679987zM684.959946 863.36005l-15.999995-9.279997 15.999995-9.279997a31.95199 31.95199 0 0 0 0-55.359983c-9.599997-5.599998-21.759993-5.919998-31.99999 0l-15.999995 9.279997v-18.559994c0-17.599995-14.399996-31.99999-31.99999-31.99999-17.759994 0-31.99999 14.239996-31.99999 31.99999v18.559994l-15.999995-9.279997a32.04799 32.04799 0 0 0-47.999985 27.679992c0 11.039997 5.759998 21.759993 15.999995 27.679991l15.999995 9.279997-15.999995 9.279997c-15.359995 8.799997-20.479994 28.479991-11.679996 43.679987 8.799997 15.359995 28.319991 20.479994 43.679986 11.679996l15.999995-9.279997v18.399994c0 17.599995 14.399996 31.99999 31.99999 31.99999 5.759998 0 11.199997-1.6 15.999995-4.319999 9.599997-5.599998 15.999995-15.839995 15.999995-27.679991v-18.399994l15.999995 9.279997c15.359995 8.799997 34.879989 3.519999 43.679986-11.679996 8.959997-15.359995 3.679999-34.879989-11.679996-43.679987z"  /></svg>