<svg class="svg-icon" style="width: 1em;height: 1em;vertical-align: middle;fill: currentColor;overflow: hidden;" viewBox="0 0 1024 1024" version="1.1" xmlns="http://www.w3.org/2000/svg"><path d="M725.12 91.36c-5.6 16.8-8.48 34.4-8.48 52.32 0 92.8 75.52 168.32 168.32 168.32 17.92 0 35.52-2.88 52.32-8.48a157.808 157.808 0 0 1-34.56 47.84c12.16 7.68 23.52 16.64 34.08 26.56 5.28 4.96 10.08 10.08 14.72 15.52 39.68-40.32 64.32-95.36 64.48-156.16a32 32 0 0 0-20.16-29.76c-12.16-4.8-26.08-1.76-35.2 7.68a103.504 103.504 0 0 1-75.84 32.8c-57.44 0-104.32-46.72-104.32-104.32 0-28.96 11.68-55.84 32.8-75.84 9.6-8.96 12.64-22.88 7.68-35.2A32 32 0 0 0 791.2 12.48h-0.16c-100 0.32-184.96 66.72-213.28 157.6 20.96 6.4 40.96 15.04 59.52 25.6 12.64-46.24 44.96-84.48 87.84-104.32z" fill="#1A1A1A" /><path d="M779.68 727.68H189.92c-51.04 0-100-20.16-134.4-55.52C23.84 639.68 6.88 597.44 8 553.28c2.24-93.44 85.44-168.48 185.28-166.24 1.76 0 3.52 0 5.28 0.16 6.4-40.48 22.72-79.2 47.68-112.96 54.24-73.76 144-117.76 240-117.76 116.48 0 219.52 62.88 266.08 161.28 9.44-1.12 19.04-1.44 28.48-1.6 59.04 0.32 114.56 22.24 156.16 61.92 41.28 39.36 63.84 91.36 63.2 146.08-1.44 112.16-100.32 203.52-220.48 203.52zM189.76 451.04c-64.8 0-116.32 45.28-117.76 103.84-0.64 26.72 9.76 52.48 29.28 72.64 22.4 23.04 54.72 36.16 88.48 36.16h588.96c86.24 0 156.32-62.88 157.12-140.16 0.48-36.8-14.88-72-43.36-99.04-29.76-28.32-69.6-44-112.16-44.16a156.64 156.64 0 0 0-28.8 2.24c-22.88 3.84-44.96-8.16-53.6-28.96-33.28-79.52-118.56-133.12-211.84-133.12-75.68 0-146.08 34.24-188.32 91.68-21.28 28.8-34.24 62.4-37.44 96.96-1.12 12.64-7.36 24.16-17.44 32.16-10.24 8.32-23.84 12.16-37.12 10.56-4.48-0.48-8.96-0.8-13.44-0.96-0.96 0.16-1.76 0.16-2.56 0.16zM272 293.12zM318.88 930.72l39.52-39.52c9.44-9.44 9.44-24.64 0-33.92s-24.64-9.44-33.92 0l-39.68 39.52-39.68-39.52c-9.44-9.44-24.64-9.44-33.92 0s-9.44 24.64 0 33.92l39.52 39.52-39.52 39.52a23.84 23.84 0 0 0 0 33.92c4.64 4.64 10.88 7.04 16.96 7.04s12.32-2.4 16.96-7.04l39.68-39.52 39.68 39.52c4.64 4.64 10.88 7.04 16.96 7.04s12.32-2.4 16.96-7.04c9.44-9.44 9.44-24.64 0-33.92l-39.52-39.52zM638.88 866.72l39.52-39.52c9.44-9.44 9.44-24.64 0-33.92s-24.64-9.44-33.92 0l-39.68 39.52-39.68-39.52c-9.44-9.44-24.64-9.44-33.92 0s-9.44 24.64 0 33.92l39.52 39.52-39.52 39.52a23.84 23.84 0 0 0 0 33.92c4.64 4.64 10.88 7.04 16.96 7.04s12.32-2.4 16.96-7.04l39.68-39.52 39.68 39.52c4.64 4.64 10.88 7.04 16.96 7.04s12.32-2.4 16.96-7.04c9.44-9.44 9.44-24.64 0-33.92l-39.52-39.52z" fill="#1A1A1A" /></svg>