<svg class="svg-icon" style="width: 1em;height: 1em;vertical-align: middle;fill: currentColor;overflow: hidden;" viewBox="0 0 1024 1024" version="1.1" xmlns="http://www.w3.org/2000/svg"><path d="M981.28 528.8l-256.96 68.8L576 512l148.32-85.6 256.96 68.8c2.72 0.8 5.6 1.12 8.32 1.12a32 32 0 0 0 8.32-62.88l-195.2-52.32 140.96-81.44a31.952 31.952 0 1 0-32-55.36l-140.96 81.44 52.32-195.2a32 32 0 0 0-22.56-39.2 32 32 0 0 0-39.2 22.56l-68.8 256.96L544 456.64V285.28L732.16 97.12c12.48-12.48 12.48-32.8 0-45.28s-32.8-12.48-45.28 0L544 194.72V32c0-17.6-14.4-32-32-32s-32 14.4-32 32v162.72l-142.88-142.88c-12.48-12.48-32.8-12.48-45.28 0-12.48 12.48-12.48 32.8 0 45.28L480 285.28v171.36l-148.32-85.6-68.8-256.96a31.888 31.888 0 0 0-39.2-22.56c-17.12 4.64-27.2 22.08-22.56 39.2l52.32 195.2-140.96-81.44c-15.52-8.96-35.04-3.84-43.84 11.52-8.8 15.36-3.52 34.88 11.68 43.68l140.96 81.44-195.2 52.32c-17.12 4.64-27.2 22.08-22.56 39.2 3.84 14.24 16.8 23.68 30.88 23.68 2.72 0 5.6-0.32 8.32-1.12l256.96-68.8L448 512l-148.32 85.6-256.96-68.8C25.6 524.16 8 534.4 3.52 551.36a32 32 0 0 0 22.56 39.2l195.2 52.32-140.96 81.44c-15.36 8.8-20.64 28.32-11.68 43.68 5.92 10.24 16.64 16 27.68 16 5.44 0 10.88-1.44 16-4.32l140.96-81.44-52.32 195.2a32 32 0 0 0 30.88 40.32c14.08 0 27.04-9.44 30.88-23.68l68.8-256.96L480 567.36v171.36L291.84 926.88c-12.48 12.48-12.48 32.8 0 45.28 12.48 12.48 32.8 12.48 45.28 0L480 829.28V992c0 17.6 14.4 32 32 32s32-14.4 32-32V829.28l142.88 142.88c6.24 6.24 14.4 9.44 22.56 9.44s16.32-3.2 22.56-9.44c12.48-12.48 12.48-32.8 0-45.28L544 738.72V567.36l148.32 85.6 68.8 256.96c3.84 14.24 16.8 23.68 30.88 23.68 2.72 0 5.6-0.32 8.32-1.12 17.12-4.64 27.2-22.08 22.56-39.2l-52.32-195.2 140.96 81.44a31.952 31.952 0 0 0 43.68-11.68c8.8-15.36 3.52-34.88-11.68-43.68l-140.96-81.44 195.2-52.32c17.12-4.64 27.2-22.08 22.56-39.2-4.32-16.8-21.92-27.04-39.04-22.4z"  /></svg>