<svg class="svg-icon" style="width: 1em;height: 1em;vertical-align: middle;fill: currentColor;overflow: hidden;" viewBox="0 0 1024 1024" version="1.1" xmlns="http://www.w3.org/2000/svg"><path d="M798.4512 599.68H185.8112c-52.16 0-102.08-20.64-137.28-56.64-32.32-33.12-49.6-76.16-48.48-121.12 2.4-95.36 87.04-171.68 189.28-169.76 2.72 0 5.44 0.16 8.16 0.32 6.4-42.56 23.2-83.2 49.44-118.72C302.7712 57.92 394.9312 12.8 493.6512 12.8 614.1312 12.8 720.6912 78.4 768.0512 180.64c10.4-1.28 20.96-1.92 31.52-1.92 60.48 0.32 117.44 22.72 160 63.36 42.24 40.32 65.28 93.44 64.64 149.44-1.44 114.72-102.72 208.16-225.76 208.16zM185.8112 312.32c-68.96 0-123.84 48.32-125.44 111.04-0.64 28.64 10.4 56.16 31.36 77.6 23.84 24.48 58.24 38.4 94.24 38.4h611.68c91.2 0 165.44-66.72 166.4-148.64 0.48-39.2-15.84-76.48-45.92-105.12-31.52-29.92-73.6-46.56-118.72-46.72-10.24 0-20.48 0.8-30.4 2.4-22.4 3.68-43.84-7.84-52.32-28.16C681.6512 129.28 592.0512 72.96 493.6512 72.96c-79.52 0-153.6 36.16-198.08 96.48-22.4 30.4-36.16 65.76-39.52 102.24-1.12 12.32-7.2 23.52-16.96 31.36-10.08 8.16-23.36 11.84-36.16 10.24-4.64-0.64-9.44-0.96-14.4-0.96h-2.72z m85.28-160.8zM232.3712 738.72L272.0512 699.2c9.44-9.44 9.44-24.64 0-33.92s-24.64-9.44-33.92 0l-39.68 39.52-39.68-39.52c-9.44-9.44-24.64-9.44-33.92 0s-9.44 24.64 0 33.92l39.68 39.52-39.68 39.68a23.84 23.84 0 0 0 0 33.92c4.64 4.64 10.88 7.04 16.96 7.04s12.32-2.4 16.96-7.04l39.68-39.52 39.68 39.52c4.64 4.64 10.88 7.04 16.96 7.04s12.32-2.4 16.96-7.04c9.44-9.44 9.44-24.64 0-33.92l-39.68-39.68zM129.9712 930.72l39.52-39.52c9.44-9.44 9.44-24.64 0-33.92s-24.64-9.44-33.92 0L96.0512 896.8l-39.68-39.52c-9.44-9.44-24.64-9.44-33.92 0s-9.44 24.64 0 33.92l39.68 39.52-39.68 39.68a23.84 23.84 0 0 0 0 33.92c4.64 4.64 10.88 7.04 16.96 7.04s12.32-2.4 16.96-7.04L96.0512 964.64l39.68 39.52c4.64 4.64 10.88 7.04 16.96 7.04s12.32-2.4 16.96-7.04c9.44-9.44 9.44-24.64 0-33.92l-39.68-39.52zM462.7712 930.72l39.52-39.52c9.44-9.44 9.44-24.64 0-33.92s-24.64-9.44-33.92 0l-39.68 39.52-39.68-39.52c-9.44-9.44-24.64-9.44-33.92 0s-9.44 24.64 0 33.92l39.52 39.52-39.52 39.52a23.84 23.84 0 0 0 0 33.92c4.64 4.64 10.88 7.04 16.96 7.04s12.32-2.4 16.96-7.04l39.68-39.52 39.68 39.52c4.64 4.64 10.88 7.04 16.96 7.04s12.32-2.4 16.96-7.04c9.44-9.44 9.44-24.64 0-33.92l-39.52-39.52zM795.5712 930.72l39.68-39.52c9.44-9.44 9.44-24.64 0-33.92s-24.64-9.44-33.92 0l-39.68 39.52-39.68-39.52c-9.44-9.44-24.64-9.44-33.92 0s-9.44 24.64 0 33.92l39.68 39.52L688.0512 970.4a23.84 23.84 0 0 0 0 33.92c4.64 4.64 10.88 7.04 16.96 7.04s12.32-2.4 16.96-7.04l39.68-39.52 39.68 39.52c4.64 4.64 10.88 7.04 16.96 7.04s12.32-2.4 16.96-7.04c9.44-9.44 9.44-24.64 0-33.92l-39.68-39.68zM565.1712 738.72l39.68-39.52c9.44-9.44 9.44-24.64 0-33.92s-24.64-9.44-33.92 0l-39.68 39.52-39.68-39.52c-9.44-9.44-24.64-9.44-33.92 0s-9.44 24.64 0 33.92l39.52 39.52-39.52 39.52a23.84 23.84 0 0 0 0 33.92c4.64 4.64 10.88 7.04 16.96 7.04s12.32-2.4 16.96-7.04l39.68-39.52 39.68 39.52c4.64 4.64 10.88 7.04 16.96 7.04s12.32-2.4 16.96-7.04c9.44-9.44 9.44-24.64 0-33.92l-39.68-39.52zM897.9712 738.72l39.68-39.52c9.44-9.44 9.44-24.64 0-33.92s-24.64-9.44-33.92 0L864.0512 704.8l-39.68-39.52c-9.44-9.44-24.64-9.44-33.92 0s-9.44 24.64 0 33.92l39.68 39.52-39.68 39.52a23.84 23.84 0 0 0 0 33.92c4.64 4.64 10.88 7.04 16.96 7.04s12.32-2.4 16.96-7.04L864.0512 772.64l39.68 39.52c4.64 4.64 10.88 7.04 16.96 7.04s12.32-2.4 16.96-7.04c9.44-9.44 9.44-24.64 0-33.92l-39.68-39.52z" fill="#1A1A1A" /></svg>