<svg class="svg-icon" style="width: 1em;height: 1em;vertical-align: middle;fill: currentColor;overflow: hidden;" viewBox="0 0 1024 1024" version="1.1" xmlns="http://www.w3.org/2000/svg"><path d="M160.0512 896c-5.44 0-10.88-1.44-16-4.32A31.92 31.92 0 0 1 132.3712 848l73.92-128c8.8-15.36 28.32-20.64 43.68-11.68 15.36 8.8 20.48 28.48 11.68 43.68l-73.92 128c-5.92 10.24-16.64 16-27.68 16zM662.1312 896c-5.44 0-10.88-1.44-16-4.32a31.952 31.952 0 0 1-11.68-43.68l73.92-128c8.8-15.36 28.32-20.64 43.68-11.68 15.36 8.8 20.48 28.48 11.68 43.68l-73.92 128c-5.92 10.24-16.64 16-27.68 16zM959.4112 293.28c-42.72-40.64-99.52-63.2-160-63.36-10.4 0-21.12 0.64-31.52 1.92C720.5312 129.6 613.9712 64 493.4912 64c-98.56 0-190.88 45.28-246.72 120.96a268.768 268.768 0 0 0-49.44 118.72c-2.72-0.16-5.44-0.32-8.16-0.32C87.0912 301.44 2.4512 377.92 0.0512 473.12c-1.12 44.96 16.16 88 48.48 121.12 35.2 36 85.12 56.64 137.28 56.64h87.04l34.72-60.16h-121.76c-36 0-70.24-14.08-94.24-38.4-20.96-21.44-32-48.96-31.36-77.6 1.6-62.72 56.48-111.04 125.44-111.04h2.56c4.8 0.16 9.6 0.48 14.4 0.96 12.96 1.6 26.08-2.24 36.16-10.24 9.76-7.84 15.84-19.04 16.96-31.36 3.52-36.48 17.12-71.84 39.52-102.24 44.48-60.48 118.56-96.48 198.08-96.48 98.24 0 187.84 56.32 223.04 140.16 8.48 20.32 30.08 31.84 52.32 28.16 9.92-1.6 20-2.4 30.4-2.4 45.12 0.16 87.2 16.8 118.72 46.72 30.08 28.64 46.4 65.92 45.92 105.12-0.96 81.92-75.2 148.64-166.4 148.64h-153.76l-34.72 60.32H798.4512c123.04 0 224.32-93.44 225.6-208.16 0.64-56.16-22.24-109.28-64.64-149.6z"  /><path d="M538.9312 260.96L481.6512 585.12h127.36L392.6912 960V697.12h-105.6z"  /></svg>